<?xml version="1.0"?>
<svg xmlns="http://www.w3.org/2000/svg" viewBox="0 0 50 50" enable-background="new 0 0 50 50">
    <path d="M 32 1 C 31.061905 1 30.087862 1.3257724 29.3125 2 C 28.537138 2.6742276 28 3.7333333 28 5 L 28 5.40625 C 27.519016 5.1855656 27.062564 5 26.5 5 C 24.57619 5 23 6.5761905 23 8.5 C 23 10.42381 24.57619 12 26.5 12 C 27.088095 12 27.62689 11.826003 28.25 11.625 C 28.87311 11.423997 29.540319 11.194138 30.15625 10.9375 C 30.999991 10.585941 31.606027 10.28177 32 10.09375 C 32.393973 10.28177 33.000009 10.585941 33.84375 10.9375 C 34.459681 11.194138 35.12689 11.423997 35.75 11.625 C 36.37311 11.826003 36.911905 12 37.5 12 C 39.42381 12 41 10.42381 41 8.5 C 41 6.5761905 39.42381 5 37.5 5 C 36.937436 5 36.480984 5.1855656 36 5.40625 L 36 4.90625 C 36 3.6755482 35.429786 2.6245743 34.65625 1.96875 C 33.882714 1.3129257 32.938095 1 32 1 z M 32 3 C 32.461905 3 32.998536 3.1808243 33.375 3.5 C 33.751464 3.8191757 34 4.2369518 34 4.90625 L 34 6.46875 C 33.896404 6.531887 33.788101 6.5933745 33.6875 6.65625 C 32.985223 7.0951728 32.422205 7.4879835 32 7.78125 C 31.577795 7.4879835 31.014777 7.0951728 30.3125 6.65625 C 30.211899 6.5933745 30.103596 6.531887 30 6.46875 L 30 5 C 30 4.2666667 30.250362 3.8257724 30.625 3.5 C 30.999638 3.1742276 31.538095 3 32 3 z M 26.5 7 C 26.4929 7 26.971879 7.1194576 27.5 7.375 C 28.028121 7.6305424 28.668527 7.9803293 29.25 8.34375 C 29.620908 8.5755676 29.626685 8.6035221 29.9375 8.8125 C 29.673075 8.9296615 29.675555 8.9372688 29.375 9.0625 C 28.790931 9.3058622 28.19564 9.5760031 27.65625 9.75 C 27.11686 9.9239969 26.611905 10 26.5 10 C 25.62381 10 25 9.3761905 25 8.5 C 25 7.6238095 25.62381 7 26.5 7 z M 37.5 7 C 38.37619 7 39 7.6238095 39 8.5 C 39 9.3761905 38.37619 10 37.5 10 C 37.388095 10 36.88314 9.9239969 36.34375 9.75 C 35.80436 9.5760031 35.209069 9.3058622 34.625 9.0625 C 34.324445 8.9372688 34.326925 8.9296615 34.0625 8.8125 C 34.373315 8.6035221 34.379092 8.5755676 34.75 8.34375 C 35.331473 7.9803293 35.971879 7.6305424 36.5 7.375 C 37.028121 7.1194576 37.507143 7 37.5 7 z M 30 12.1875 L 28 13 L 28 15.5 C 27.4 15.2 26.8 15 26 15 C 24.4 15 23.29375 15.7125 22.59375 16.8125 C 21.99375 16.3125 21.1 16 20 16 C 18.6 16 17.0125 16.4875 16.3125 18.6875 C 15.5125 18.0875 14.7 18 14 18 C 12.5 18 10 18.6 10 23 L 10 41 C 10 46 14 50 19 50 L 28.09375 50 C 31.49375 50 34.59375 48.1 36.09375 45 L 39 39.5 C 39.1 39.2 40.09375 37.20625 40.09375 34.90625 C 40.09375 31.00625 37.79375 29.0125 36.09375 28.3125 L 36.09375 13 L 34.09375 12.1875 L 34.09375 28.90625 C 34.09375 29.40625 34.50625 29.80625 34.90625 29.90625 C 35.00625 29.90625 38.09375 30.8125 38.09375 34.8125 C 38.09375 36.3125 37.4875 37.9 37.1875 38.5 L 34.40625 44.09375 C 33.20625 46.49375 30.79375 48 28.09375 48 L 19 48 C 15.1 48 12 44.9 12 41 L 12 23 C 12 20.4 13 20 14 20 C 15 20 16 20.4 16 23 C 16 23.6 16.4 24 17 24 C 17.6 24 18 23.6 18 23 L 18 21 C 18 18.2 19 18 20 18 C 21.7 18 22 19.1 22 20 L 22 22 C 22 22.6 22.4 23 23 23 C 23.6 23 24 22.6 24 22 L 24 19 C 24 18.2 24.5 17 26 17 C 27.5 17 28 18.2 28 19 L 28 23 C 28 23.6 28.4 24 29 24 C 29.6 24 30 23.6 30 23 L 30 12.1875 z"/>
</svg>
